<svg width="34" height="26" viewBox="0 0 34 26" fill="none" xmlns="http://www.w3.org/2000/svg">
<path d="M28.0695 2.17263C25.9503 1.20006 23.7141 0.505933 21.4167 0.107559C21.3959 0.104054 21.3745 0.107081 21.3555 0.116225C21.3365 0.125369 21.3208 0.140181 21.3105 0.158624C21.0225 0.669274 20.7039 1.3372 20.4812 1.86011C18.0048 1.48429 15.4858 1.48429 13.0094 1.86011C12.761 1.2776 12.4801 0.709534 12.1678 0.158624C12.1573 0.140383 12.1416 0.125742 12.1226 0.116627C12.1037 0.107512 12.0824 0.104351 12.0616 0.107559C9.76381 0.504316 7.52744 1.19851 5.40886 2.17263C5.39073 2.17955 5.37557 2.19254 5.36596 2.20939C1.12961 8.53941 -0.0326294 14.7142 0.537256 20.8114C0.539299 20.84 0.557682 20.8686 0.580151 20.8869C3.04707 22.7142 5.80635 24.1094 8.74034 25.013C8.76105 25.0195 8.78332 25.0193 8.80389 25.0123C8.82446 25.0053 8.84227 24.992 8.85473 24.9742C9.48385 24.1163 10.0435 23.2114 10.5256 22.2596C10.5322 22.2466 10.536 22.2323 10.5367 22.2177C10.5374 22.2032 10.5349 22.1886 10.5295 22.1751C10.5241 22.1615 10.5158 22.1493 10.5053 22.1392C10.4947 22.1291 10.4822 22.1214 10.4684 22.1166C9.58835 21.7784 8.73605 21.372 7.91921 20.9012C7.90429 20.8926 7.89175 20.8804 7.8827 20.8657C7.87365 20.8511 7.86838 20.8344 7.86737 20.8172C7.86636 20.8 7.86963 20.7828 7.8769 20.7671C7.88416 20.7515 7.8952 20.7379 7.909 20.7276C8.08058 20.5989 8.25216 20.4641 8.41557 20.3293C8.43 20.3177 8.44732 20.3102 8.46567 20.3077C8.48402 20.3052 8.50271 20.3077 8.51974 20.315C13.8693 22.758 19.6601 22.758 24.9443 20.315C24.9619 20.3071 24.9813 20.3043 25.0004 20.3068C25.0196 20.3094 25.0376 20.3171 25.0525 20.3293C25.216 20.4641 25.3875 20.5989 25.5591 20.7276C25.573 20.7378 25.5842 20.7512 25.5916 20.7668C25.5991 20.7823 25.6025 20.7994 25.6017 20.8166C25.6009 20.8338 25.5958 20.8506 25.587 20.8653C25.5781 20.8801 25.5657 20.8924 25.5509 20.9012C24.7359 21.3763 23.8825 21.7821 22.9997 22.1145C22.9861 22.1198 22.9737 22.1279 22.9633 22.1382C22.953 22.1486 22.945 22.1611 22.9398 22.1747C22.9346 22.1884 22.9323 22.203 22.9331 22.2177C22.934 22.2323 22.9379 22.2466 22.9446 22.2596C23.4348 23.2094 23.9965 24.1163 24.6134 24.9742C24.6259 24.992 24.6437 25.0053 24.6642 25.0123C24.6848 25.0193 24.7071 25.0195 24.7278 25.013C27.6667 24.1123 30.4305 22.7169 32.9002 20.8869C32.9125 20.8783 32.9227 20.867 32.9301 20.8539C32.9375 20.8409 32.942 20.8263 32.9431 20.8114C33.6253 13.7623 31.8013 7.63863 28.1103 2.21144C28.1066 2.20247 28.101 2.19439 28.094 2.1877C28.087 2.18102 28.0786 2.17588 28.0695 2.17263ZM11.3242 17.0979C9.71262 17.0979 8.38697 15.6191 8.38697 13.8052C8.38697 11.9894 9.68811 10.5105 11.3242 10.5105C12.9726 10.5105 14.286 12.0016 14.2615 13.8052C14.2615 15.6191 12.9604 17.0979 11.3242 17.0979ZM22.1827 17.0979C20.5731 17.0979 19.2454 15.6191 19.2454 13.8052C19.2454 11.9894 20.5466 10.5105 22.1827 10.5105C23.8311 10.5105 25.1465 12.0016 25.12 13.8052C25.12 15.6191 23.8311 17.0979 22.1827 17.0979Z" fill="#483969"/>
</svg>
