<svg width="34" height="27" viewBox="0 0 34 27" fill="none" xmlns="http://www.w3.org/2000/svg">
<path d="M11.0322 26.8738C23.3647 26.8738 30.1129 16.6547 30.1129 7.80781C30.1129 7.52031 30.1129 7.23282 30.0998 6.94533C31.4076 6.00445 32.5454 4.81528 33.4477 3.46929C32.2446 4.00507 30.9499 4.3579 29.5898 4.52778C30.976 3.70451 32.0353 2.38466 32.5454 0.816523C31.2506 1.58752 29.8121 2.13637 28.282 2.43693C27.0526 1.13015 25.3133 0.319946 23.3908 0.319946C19.6898 0.319946 16.6819 3.32554 16.6819 7.02374C16.6819 7.54645 16.7473 8.05609 16.8519 8.55267C11.2807 8.27825 6.33729 5.59934 3.02859 1.54832C2.45316 2.54148 2.12621 3.69144 2.12621 4.91982C2.12621 7.24589 3.3163 9.29754 5.10797 10.4998C4.00943 10.4606 2.97627 10.16 2.0739 9.66343C2.0739 9.68957 2.0739 9.71571 2.0739 9.75491C2.0739 12.9957 4.38868 15.7138 7.44891 16.328C6.88656 16.4848 6.29805 16.5632 5.68339 16.5632C5.25182 16.5632 4.83333 16.524 4.42792 16.4456C5.27798 19.1115 7.76278 21.0455 10.6922 21.0978C8.39052 22.9011 5.50031 23.9727 2.36161 23.9727C1.82542 23.9727 1.28923 23.9466 0.766113 23.8812C3.72171 25.763 7.25274 26.8738 11.0322 26.8738Z" fill="#483969"/>
</svg>
