<svg width="351" height="352" viewBox="0 0 351 352" fill="none" xmlns="http://www.w3.org/2000/svg">
<path d="M175.5 297.896C243.647 297.896 299 243.334 299 175.896C299 108.457 243.647 53.8958 175.5 53.8958C107.353 53.8958 52 108.457 52 175.896C52 243.334 107.353 297.896 175.5 297.896Z" fill="#483969" stroke="#8700B8" stroke-width="10"/>
<path d="M51 167.254C51 162.542 54.779 158.722 59.4407 158.722H76.322C80.9837 158.722 84.7627 162.542 84.7627 167.254V184.928C84.7627 189.64 80.9837 193.46 76.322 193.46H59.4407C54.779 193.46 51 189.64 51 184.928V167.254Z" fill="#2C2241" fill-opacity="0.9"/>
<path d="M266.237 167.254C266.237 162.542 270.016 158.722 274.678 158.722H291.559C296.221 158.722 300 162.542 300 167.254V184.928C300 189.64 296.221 193.46 291.559 193.46H274.678C270.016 193.46 266.237 189.64 266.237 184.928V167.254Z" fill="#2C2241" fill-opacity="0.9"/>
<path d="M161.935 272.689C161.935 267.977 165.714 264.157 170.375 264.157H187.257C191.918 264.157 195.697 267.977 195.697 272.689V290.363C195.697 295.076 191.918 298.896 187.257 298.896H170.375C165.714 298.896 161.935 295.076 161.935 290.363V272.689Z" fill="#2C2241" fill-opacity="0.9"/>
<path d="M161.935 62.4281C161.935 57.7158 165.714 53.8958 170.375 53.8958H187.257C191.918 53.8958 195.697 57.7158 195.697 62.4281V80.1022C195.697 84.8145 191.918 88.6346 187.257 88.6346H170.375C165.714 88.6346 161.935 84.8145 161.935 80.1022V62.4281Z" fill="#2C2241" fill-opacity="0.9"/>
<path d="M93.0253 81.001C96.3553 77.6711 101.754 77.6711 105.084 81.001L117.143 93.0599C120.473 96.3899 120.473 101.789 117.143 105.119L104.654 117.608C101.324 120.938 95.9246 120.938 92.5947 117.608L80.5358 105.55C77.2058 102.22 77.2058 96.8206 80.5358 93.4906L93.0253 81.001Z" fill="#9877FE" fill-opacity="0.4"/>
<path d="M246.776 234.752C250.106 231.422 255.505 231.422 258.835 234.752L270.894 246.811C274.224 250.141 274.224 255.54 270.894 258.87L258.405 271.359C255.075 274.689 249.676 274.689 246.346 271.359L234.287 259.3C230.957 255.97 230.957 250.572 234.287 247.242L246.776 234.752Z" fill="#9877FE" fill-opacity="0.4"/>
<path d="M97.7628 234.752C101.093 231.422 106.492 231.422 109.822 234.752L121.881 246.811C125.211 250.141 125.211 255.54 121.881 258.87L109.391 271.359C106.061 274.689 100.662 274.689 97.3321 271.359L85.2732 259.3C81.9432 255.97 81.9432 250.572 85.2732 247.242L97.7628 234.752Z" fill="#9877FE" fill-opacity="0.4"/>
<path d="M246.346 86.1691C249.676 82.8392 255.075 82.8392 258.404 86.1691L270.463 98.228C273.793 101.558 273.793 106.957 270.463 110.287L257.974 122.777C254.644 126.106 249.245 126.106 245.915 122.777L233.856 110.718C230.526 107.388 230.526 101.989 233.856 98.6587L246.346 86.1691Z" fill="#9877FE" fill-opacity="0.4"/>
<path d="M257 175.896C257 220.079 220.511 255.896 175.5 255.896C130.489 255.896 94 220.079 94 175.896C94 131.713 130.489 95.8958 175.5 95.8958C220.511 95.8958 257 131.713 257 175.896Z" fill="#2C2241"/>
<path d="M257 175.896C257 220.079 220.511 255.896 175.5 255.896C130.489 255.896 94 220.079 94 175.896C94 131.713 130.489 95.8958 175.5 95.8958C220.511 95.8958 257 131.713 257 175.896Z" stroke="#9877FE"/>
<path d="M151.602 182.821C153.032 183.261 154.26 184.232 155.287 185.736C156.314 187.202 156.827 188.889 156.827 190.796C156.827 194.866 155.507 197.909 152.867 199.926C150.227 201.906 146.377 202.896 141.317 202.896H118.657C118.254 202.896 117.905 202.749 117.612 202.456C117.319 202.162 117.172 201.814 117.172 201.411V165.881C117.172 165.477 117.319 165.129 117.612 164.836C117.905 164.542 118.254 164.396 118.657 164.396H140.767C145.974 164.396 149.805 165.349 152.262 167.256C154.755 169.126 156.002 171.967 156.002 175.781V175.946C156.002 177.706 155.525 179.209 154.572 180.456C153.619 181.702 152.629 182.491 151.602 182.821ZM141.097 176.276C141.097 175.616 140.895 175.047 140.492 174.571C140.125 174.094 139.575 173.856 138.842 173.856H131.472V178.861H138.842C139.575 178.861 140.125 178.604 140.492 178.091C140.895 177.541 141.097 176.936 141.097 176.276ZM139.447 193.436C140.29 193.436 140.914 193.161 141.317 192.611C141.757 192.024 141.977 191.382 141.977 190.686V190.631C141.977 189.934 141.739 189.329 141.262 188.816C140.822 188.302 140.217 188.046 139.447 188.046H131.472V193.436H139.447ZM195.856 191.621C196.259 191.621 196.607 191.767 196.901 192.061C197.194 192.354 197.341 192.702 197.341 193.106V201.411C197.341 201.814 197.194 202.162 196.901 202.456C196.607 202.749 196.259 202.896 195.856 202.896H163.736C163.332 202.896 162.984 202.749 162.691 202.456C162.397 202.162 162.251 201.814 162.251 201.411V165.881C162.251 165.477 162.397 165.129 162.691 164.836C162.984 164.542 163.332 164.396 163.736 164.396H175.616C176.019 164.396 176.367 164.542 176.661 164.836C176.954 165.129 177.101 165.477 177.101 165.881V191.621H195.856ZM240.384 201.081C240.494 201.191 240.549 201.337 240.549 201.521C240.549 201.887 240.421 202.217 240.164 202.511C239.944 202.767 239.669 202.896 239.339 202.896H227.514C226.524 202.896 225.772 202.474 225.259 201.631L219.924 193.436L214.699 201.631C214.149 202.474 213.397 202.896 212.444 202.896H200.564C200.234 202.896 199.941 202.786 199.684 202.566C199.464 202.309 199.354 202.016 199.354 201.686V201.521C199.354 201.337 199.409 201.191 199.519 201.081L211.674 182.491L200.839 166.211C200.729 166.064 200.674 165.862 200.674 165.606C200.674 165.276 200.784 165.001 201.004 164.781C201.261 164.524 201.554 164.396 201.884 164.396H213.764C214.717 164.396 215.487 164.854 216.074 165.771L220.364 172.811L224.984 165.661C225.241 165.331 225.516 165.037 225.809 164.781C226.139 164.524 226.616 164.396 227.239 164.396H239.064C239.394 164.396 239.669 164.524 239.889 164.781C240.146 165.001 240.274 165.276 240.274 165.606V165.771C240.274 165.954 240.219 166.101 240.109 166.211L228.614 183.206L240.384 201.081Z" fill="#9877FE"/>
<path d="M175.5 267.396C226.768 267.396 268.5 226.97 268.5 176.896C268.5 126.821 226.768 86.3958 175.5 86.3958C124.232 86.3958 82.5 126.821 82.5 176.896C82.5 226.97 124.232 267.396 175.5 267.396Z" stroke="#9877FE" stroke-width="7"/>
<path d="M175.5 298.396C243.917 298.396 299.5 243.616 299.5 175.896C299.5 108.175 243.917 53.3958 175.5 53.3958C107.083 53.3958 51.5 108.175 51.5 175.896C51.5 243.616 107.083 298.396 175.5 298.396Z" stroke="#A88FF5" stroke-width="11"/>
<g style="mix-blend-mode:screen">
<path d="M257 176.543C257 189.1 253.928 201.478 248.037 212.654C242.146 223.831 233.606 233.486 223.119 240.823C212.633 248.161 200.522 253.114 187.747 254.998C174.972 256.883 161.919 255.789 149.664 251.807C137.41 247.824 126.286 240.924 117.247 231.95C108.209 222.976 101.495 212.043 97.66 200.051C93.8251 188.06 92.9965 174.348 95.2087 161.976C97.4209 149.604 102.61 138.927 110.383 128.896L175.494 176.543H257Z" fill="#9877FE" fill-opacity="0.06"/>
<path d="M257 176.543C257 189.1 253.928 201.478 248.037 212.654C242.146 223.831 233.606 233.486 223.119 240.823C212.633 248.161 200.522 253.114 187.747 254.998C174.972 256.883 161.919 255.789 149.664 251.807C137.41 247.824 126.286 240.924 117.247 231.95C108.209 222.976 101.495 212.043 97.66 200.051C93.8251 188.06 92.9965 174.348 95.2087 161.976C97.4209 149.604 102.61 138.927 110.383 128.896L175.494 176.543H257Z" fill="#9877FE" fill-opacity="0.06"/>
<path d="M257 176.543C257 189.1 253.928 201.478 248.037 212.654C242.146 223.831 233.606 233.486 223.119 240.823C212.633 248.161 200.522 253.114 187.747 254.998C174.972 256.883 161.919 255.789 149.664 251.807C137.41 247.824 126.286 240.924 117.247 231.95C108.209 222.976 101.495 212.043 97.66 200.051C93.8251 188.06 92.9965 174.348 95.2087 161.976C97.4209 149.604 102.61 138.927 110.383 128.896L175.494 176.543H257Z" fill="#9877FE" fill-opacity="0.06"/>
</g>
<circle cx="186" cy="287.896" r="3" fill="#D9D9D9"/>
<circle cx="172" cy="287.896" r="3" fill="#D9D9D9"/>
<ellipse cx="172" cy="276.396" rx="3" ry="2.5" fill="#D9D9D9"/>
<ellipse cx="186" cy="276.396" rx="3" ry="2.5" fill="#D9D9D9"/>
<path d="M221.4 100.729C234.753 108.656 243.397 117.26 252.266 130.165L246.107 136.094C237.144 123.127 231.762 117.437 216.577 107.45L221.4 100.729Z" fill="#D9D9D9"/>
<path d="M97.9029 130.534C106.259 117.445 115.139 109.085 128.325 100.639L134.051 106.987C120.8 115.525 114.939 120.72 104.464 135.573L97.9029 130.534Z" fill="#D9D9D9"/>
<path d="M157.821 226.985C158.107 227.073 158.353 227.268 158.558 227.568C158.763 227.862 158.866 228.199 158.866 228.58C158.866 229.394 158.602 230.003 158.074 230.406C157.546 230.802 156.776 231 155.764 231H151.232C151.151 231 151.082 230.971 151.023 230.912C150.964 230.854 150.935 230.784 150.935 230.703V223.597C150.935 223.517 150.964 223.447 151.023 223.388C151.082 223.33 151.151 223.3 151.232 223.3H155.654C156.695 223.3 157.462 223.491 157.953 223.872C158.452 224.246 158.701 224.815 158.701 225.577V225.61C158.701 225.962 158.606 226.263 158.415 226.512C158.224 226.762 158.026 226.919 157.821 226.985ZM155.72 225.676C155.72 225.544 155.68 225.431 155.599 225.335C155.526 225.24 155.416 225.192 155.269 225.192H153.795V226.193H155.269C155.416 226.193 155.526 226.142 155.599 226.039C155.68 225.929 155.72 225.808 155.72 225.676ZM155.39 229.108C155.559 229.108 155.683 229.053 155.764 228.943C155.852 228.826 155.896 228.698 155.896 228.558V228.547C155.896 228.408 155.848 228.287 155.753 228.184C155.665 228.082 155.544 228.03 155.39 228.03H153.795V229.108H155.39ZM167.607 228.745C167.687 228.745 167.757 228.775 167.816 228.833C167.874 228.892 167.904 228.962 167.904 229.042V230.703C167.904 230.784 167.874 230.854 167.816 230.912C167.757 230.971 167.687 231 167.607 231H161.183C161.102 231 161.032 230.971 160.974 230.912C160.915 230.854 160.886 230.784 160.886 230.703V223.597C160.886 223.517 160.915 223.447 160.974 223.388C161.032 223.33 161.102 223.3 161.183 223.3H163.559C163.639 223.3 163.709 223.33 163.768 223.388C163.826 223.447 163.856 223.517 163.856 223.597V228.745H167.607ZM177.447 230.637C177.469 230.659 177.48 230.689 177.48 230.725C177.48 230.799 177.455 230.865 177.403 230.923C177.359 230.975 177.304 231 177.238 231H174.873C174.675 231 174.525 230.916 174.422 230.747L173.355 229.108L172.31 230.747C172.2 230.916 172.05 231 171.859 231H169.483C169.417 231 169.359 230.978 169.307 230.934C169.263 230.883 169.241 230.824 169.241 230.758V230.725C169.241 230.689 169.252 230.659 169.274 230.637L171.705 226.919L169.538 223.663C169.516 223.634 169.505 223.594 169.505 223.542C169.505 223.476 169.527 223.421 169.571 223.377C169.623 223.326 169.681 223.3 169.747 223.3H172.123C172.314 223.3 172.468 223.392 172.585 223.575L173.443 224.983L174.367 223.553C174.419 223.487 174.474 223.429 174.532 223.377C174.598 223.326 174.694 223.3 174.818 223.3H177.183C177.249 223.3 177.304 223.326 177.348 223.377C177.4 223.421 177.425 223.476 177.425 223.542V223.575C177.425 223.612 177.414 223.641 177.392 223.663L175.093 227.062L177.447 230.637ZM185.858 226.985C186.144 227.073 186.39 227.268 186.595 227.568C186.8 227.862 186.903 228.199 186.903 228.58C186.903 229.394 186.639 230.003 186.111 230.406C185.583 230.802 184.813 231 183.801 231H179.269C179.188 231 179.119 230.971 179.06 230.912C179.001 230.854 178.972 230.784 178.972 230.703V223.597C178.972 223.517 179.001 223.447 179.06 223.388C179.119 223.33 179.188 223.3 179.269 223.3H183.691C184.732 223.3 185.499 223.491 185.99 223.872C186.489 224.246 186.738 224.815 186.738 225.577V225.61C186.738 225.962 186.643 226.263 186.452 226.512C186.261 226.762 186.063 226.919 185.858 226.985ZM183.757 225.676C183.757 225.544 183.717 225.431 183.636 225.335C183.563 225.24 183.453 225.192 183.306 225.192H181.832V226.193H183.306C183.453 226.193 183.563 226.142 183.636 226.039C183.717 225.929 183.757 225.808 183.757 225.676ZM183.427 229.108C183.596 229.108 183.72 229.053 183.801 228.943C183.889 228.826 183.933 228.698 183.933 228.558V228.547C183.933 228.408 183.885 228.287 183.79 228.184C183.702 228.082 183.581 228.03 183.427 228.03H181.832V229.108H183.427ZM195.622 228.855C195.702 228.855 195.772 228.885 195.831 228.943C195.889 229.002 195.919 229.072 195.919 229.152V230.703C195.919 230.784 195.889 230.854 195.831 230.912C195.772 230.971 195.702 231 195.622 231H188.67C188.589 231 188.519 230.971 188.461 230.912C188.402 230.854 188.373 230.784 188.373 230.703V223.597C188.373 223.517 188.402 223.447 188.461 223.388C188.519 223.33 188.589 223.3 188.67 223.3H195.512C195.592 223.3 195.662 223.33 195.721 223.388C195.779 223.447 195.809 223.517 195.809 223.597V225.148C195.809 225.229 195.779 225.299 195.721 225.357C195.662 225.416 195.592 225.445 195.512 225.445H191.233V226.138H194.907C194.987 226.138 195.057 226.168 195.116 226.226C195.174 226.285 195.204 226.355 195.204 226.435V227.865C195.204 227.946 195.174 228.016 195.116 228.074C195.057 228.133 194.987 228.162 194.907 228.162H191.233V228.855H195.622ZM205.199 223.3C205.279 223.3 205.349 223.33 205.408 223.388C205.466 223.447 205.496 223.517 205.496 223.597V225.368C205.496 225.449 205.466 225.519 205.408 225.577C205.349 225.636 205.279 225.665 205.199 225.665H202.834V230.703C202.834 230.784 202.804 230.854 202.746 230.912C202.687 230.971 202.617 231 202.537 231H200.271C200.19 231 200.12 230.971 200.062 230.912C200.003 230.854 199.974 230.784 199.974 230.703V225.665H197.609C197.528 225.665 197.458 225.636 197.4 225.577C197.341 225.519 197.312 225.449 197.312 225.368V223.597C197.312 223.517 197.341 223.447 197.4 223.388C197.458 223.33 197.528 223.3 197.609 223.3H205.199Z" fill="#9877FE" fill-opacity="0.46"/>
</svg>
